<?xml version="1.0" encoding="UTF-8" standalone="no"?>
<!DOCTYPE svg PUBLIC "-//W3C//DTD SVG 1.1//EN" "http://www.w3.org/Graphics/SVG/1.1/DTD/svg11.dtd">
<svg width="100%" height="100%" viewBox="0 0 100 100" version="1.1" xmlns="http://www.w3.org/2000/svg" xmlns:xlink="http://www.w3.org/1999/xlink" xml:space="preserve" xmlns:serif="http://www.serif.com/" style="fill-rule:evenodd;clip-rule:evenodd;stroke-linejoin:round;stroke-miterlimit:2;">
    <g transform="matrix(1.244613,0,0,1.244613,-12.230653,-52.010652)">
        <g transform="matrix(0.60627,0,0,0.60627,34.045978,44.417075)">
            <path d="M77,40C77,56 50,87 50,87C50,87 23,56 23,40C23,25.088 35.088,13 50,13C64.912,13 77,25.088 77,40ZM50,25C41.729,25 35,31.729 35,40C35,48.271 41.729,55 50,55C58.271,55 65,48.271 65,40C65,31.729 58.271,25 50,25Z" style="fill:rgb(90,122,74);fill-rule:nonzero;"/>
            <path d="M50,88C49.711,88 49.436,87.875 49.246,87.657C48.133,86.38 22,56.188 22,40C22,24.561 34.561,12 50,12C65.439,12 78,24.561 78,40C78,56.188 51.867,86.38 50.754,87.657C50.564,87.875 50.289,88 50,88ZM50,14C35.664,14 24,25.663 24,40C24,53.962 45.65,80.308 50,85.459C54.35,80.308 76,53.962 76,40C76,25.663 64.336,14 50,14Z" style="fill:rgb(234,214,199);fill-rule:nonzero;"/>
            <path d="M50,24.5C58.555,24.5 65.5,31.445 65.5,40C65.5,48.555 58.555,55.5 50,55.5C41.445,55.5 34.5,48.555 34.5,40C34.5,31.445 41.445,24.5 50,24.5ZM50,25C41.729,25 35,31.729 35,40C35,48.271 41.729,55 50,55C58.271,55 65,48.271 65,40C65,31.729 58.271,25 50,25Z" style="fill:rgb(254,253,239);"/>
            <path d="M50,88C49.711,88 49.436,87.875 49.246,87.657C48.133,86.38 22,56.188 22,40C22,24.561 34.561,12 50,12C65.439,12 78,24.561 78,40C78,56.188 51.867,86.38 50.754,87.657C50.564,87.875 50.289,88 50,88ZM50,14C35.664,14 24,25.663 24,40C24,53.962 45.65,80.308 50,85.459C54.35,80.308 76,53.962 76,40C76,25.663 64.336,14 50,14Z" style="fill:rgb(31,33,43);fill-rule:nonzero;"/>
            <path d="M50,56C41.178,56 34,48.822 34,40C34,31.178 41.178,24 50,24C58.822,24 66,31.178 66,40C66,48.822 58.822,56 50,56ZM50,25C41.729,25 35,31.729 35,40C35,48.271 41.729,55 50,55C58.271,55 65,48.271 65,40C65,31.729 58.271,25 50,25Z" style="fill:rgb(31,33,43);fill-rule:nonzero;"/>
            <path d="M50,56C41.178,56 34,48.822 34,40C34,31.178 41.178,24 50,24C58.822,24 66,31.178 66,40C66,48.822 58.822,56 50,56ZM50,25C41.729,25 35,31.729 35,40C35,48.271 41.729,55 50,55C58.271,55 65,48.271 65,40C65,31.729 58.271,25 50,25Z" style="fill:rgb(31,33,43);fill-rule:nonzero;"/>
            <path d="M50,61C38.42,61 29,51.579 29,40C29,28.421 38.42,19 50,19C53.428,19 56.703,19.81 59.733,21.407C59.977,21.536 60.071,21.839 59.942,22.083C59.813,22.328 59.511,22.421 59.266,22.292C56.382,20.771 53.264,20 50,20C38.972,20 30,28.972 30,40C30,51.028 38.972,60 50,60C60.937,60 69.71,51.43 69.975,40.488C69.982,40.211 70.181,39.967 70.487,40C70.763,40.007 70.981,40.236 70.975,40.512C70.697,52.001 61.484,61 50,61Z" style="fill:rgb(31,33,43);fill-rule:nonzero;"/>
            <path d="M66.217,28C66.067,28 65.919,27.933 65.821,27.806C64.68,26.326 63.341,25.012 61.842,23.903C61.62,23.738 61.573,23.425 61.738,23.203C61.903,22.982 62.216,22.936 62.437,23.099C64.011,24.264 65.416,25.642 66.613,27.196C66.781,27.415 66.741,27.729 66.522,27.898C66.431,27.966 66.323,28 66.217,28Z" style="fill:rgb(31,33,43);fill-rule:nonzero;"/>
            <path d="M69.431,34C69.222,34 69.027,33.868 68.957,33.659C68.624,32.665 68.204,31.68 67.707,30.732C67.579,30.487 67.673,30.185 67.918,30.056C68.162,29.931 68.464,30.024 68.593,30.267C69.114,31.262 69.556,32.296 69.906,33.34C69.994,33.603 69.852,33.886 69.591,33.974C69.537,33.992 69.483,34 69.431,34Z" style="fill:rgb(31,33,43);fill-rule:nonzero;"/>
        </g>
        <g transform="matrix(0.711989,0,0,0.711989,3.001207,49.576151)">
            <path d="M77,40C77,56 50,87 50,87C50,87 23,56 23,40C23,25.088 35.088,13 50,13C64.912,13 77,25.088 77,40ZM50,25C41.729,25 35,31.729 35,40C35,48.271 41.729,55 50,55C58.271,55 65,48.271 65,40C65,31.729 58.271,25 50,25Z" style="fill:rgb(74,111,168);fill-rule:nonzero;"/>
            <path d="M50,88C49.711,88 49.436,87.875 49.246,87.657C48.133,86.38 22,56.188 22,40C22,24.561 34.561,12 50,12C65.439,12 78,24.561 78,40C78,56.188 51.867,86.38 50.754,87.657C50.564,87.875 50.289,88 50,88ZM50,14C35.664,14 24,25.663 24,40C24,53.962 45.65,80.308 50,85.459C54.35,80.308 76,53.962 76,40C76,25.663 64.336,14 50,14Z" style="fill:rgb(234,214,199);fill-rule:nonzero;"/>
            <path d="M50,24.5C58.555,24.5 65.5,31.445 65.5,40C65.5,48.555 58.555,55.5 50,55.5C41.445,55.5 34.5,48.555 34.5,40C34.5,31.445 41.445,24.5 50,24.5ZM50,25C41.729,25 35,31.729 35,40C35,48.271 41.729,55 50,55C58.271,55 65,48.271 65,40C65,31.729 58.271,25 50,25Z" style="fill:rgb(254,253,239);"/>
            <path d="M50,88C49.711,88 49.436,87.875 49.246,87.657C48.133,86.38 22,56.188 22,40C22,24.561 34.561,12 50,12C65.439,12 78,24.561 78,40C78,56.188 51.867,86.38 50.754,87.657C50.564,87.875 50.289,88 50,88ZM50,14C35.664,14 24,25.663 24,40C24,53.962 45.65,80.308 50,85.459C54.35,80.308 76,53.962 76,40C76,25.663 64.336,14 50,14Z" style="fill:rgb(31,33,43);fill-rule:nonzero;"/>
            <path d="M50,56C41.178,56 34,48.822 34,40C34,31.178 41.178,24 50,24C58.822,24 66,31.178 66,40C66,48.822 58.822,56 50,56ZM50,25C41.729,25 35,31.729 35,40C35,48.271 41.729,55 50,55C58.271,55 65,48.271 65,40C65,31.729 58.271,25 50,25Z" style="fill:rgb(31,33,43);fill-rule:nonzero;"/>
            <path d="M50,56C41.178,56 34,48.822 34,40C34,31.178 41.178,24 50,24C58.822,24 66,31.178 66,40C66,48.822 58.822,56 50,56ZM50,25C41.729,25 35,31.729 35,40C35,48.271 41.729,55 50,55C58.271,55 65,48.271 65,40C65,31.729 58.271,25 50,25Z" style="fill:rgb(31,33,43);fill-rule:nonzero;"/>
            <path d="M50,61C38.42,61 29,51.579 29,40C29,28.421 38.42,19 50,19C53.428,19 56.703,19.81 59.733,21.407C59.977,21.536 60.071,21.839 59.942,22.083C59.813,22.328 59.511,22.421 59.266,22.292C56.382,20.771 53.264,20 50,20C38.972,20 30,28.972 30,40C30,51.028 38.972,60 50,60C60.937,60 69.71,51.43 69.975,40.488C69.982,40.211 70.181,39.967 70.487,40C70.763,40.007 70.981,40.236 70.975,40.512C70.697,52.001 61.484,61 50,61Z" style="fill:rgb(31,33,43);fill-rule:nonzero;"/>
            <path d="M66.217,28C66.067,28 65.919,27.933 65.821,27.806C64.68,26.326 63.341,25.012 61.842,23.903C61.62,23.738 61.573,23.425 61.738,23.203C61.903,22.982 62.216,22.936 62.437,23.099C64.011,24.264 65.416,25.642 66.613,27.196C66.781,27.415 66.741,27.729 66.522,27.898C66.431,27.966 66.323,28 66.217,28Z" style="fill:rgb(31,33,43);fill-rule:nonzero;"/>
            <path d="M69.431,34C69.222,34 69.027,33.868 68.957,33.659C68.624,32.665 68.204,31.68 67.707,30.732C67.579,30.487 67.673,30.185 67.918,30.056C68.162,29.931 68.464,30.024 68.593,30.267C69.114,31.262 69.556,32.296 69.906,33.34C69.994,33.603 69.852,33.886 69.591,33.974C69.537,33.992 69.483,34 69.431,34Z" style="fill:rgb(31,33,43);fill-rule:nonzero;"/>
        </g>
    </g>
</svg>
